<svg width="487" height="295" viewBox="0 0 487 295" fill="none" xmlns="http://www.w3.org/2000/svg">
<path fill-rule="evenodd" clip-rule="evenodd" d="M404.485 117.284C393.395 117.38 381.922 118.462 371.705 122.571C374.789 115.038 376.234 107.013 376.139 99.0013C376.044 65.2569 348.761 37.6613 315.6 37.6613C295.834 37.6613 277.227 47.5354 265.769 64.0791C263.45 37.6476 223.345 0 177.839 0C88.6807 0 72.5841 95.5636 88.6807 122.557C58.6022 114.545 0 135.567 0 200.618C0 246.688 44.5381 276.722 82.8013 284.651C123.097 292.964 315.6 303.043 404.485 284.651C438.028 277.707 487 256.083 487 201.015C487 155.041 444.972 117.079 404.485 117.284Z" fill="#1D1D1F"></path>
</svg>